# xmcd
#
# Track frame offsets: 
#        150
#        21154
#        41652
#        60702
#        77118
#        96779
#        114510
#        126020
#        142340
#        159333
#        172129
#
# Disc length: 2559 seconds
#
# Revision: 0
# Processed by: cddbd v1.5.2PL0 Copyright (c) Steve Scherf et al.
# Submitted via: ExactAudioCopy v0.99pb5
#
DISCID=9609fd0b
DTITLE=Greg Hall - Look Ma, No Bands
DYEAR=1996
DGENRE=Country
TTITLE0=All These Things
TTITLE1=Boy, You're Some Girl
TTITLE2=Babylon's Crumbling
TTITLE3=Two Broken Hearts
TTITLE4=Anything Is Possible
TTITLE5=The Love She Sees
TTITLE6=I'll Get By
TTITLE7=If I Knew I'd Love Another
TTITLE8=From Me, To You
TTITLE9=Just Us Two
TTITLE10=The Jackrabbit Jubilee
EXTD=
EXTT0=
EXTT1=
EXTT2=
EXTT3=
EXTT4=
EXTT5=
EXTT6=
EXTT7=
EXTT8=
EXTT9=
EXTT10=
PLAYORDER=
